# AST/ASF file generated using VICON BodyLanguage
# -----------------------------------------------
:version 1.10
:name VICON
:units
  mass 1.0
  length 0.45
  angle deg
:documentation
   .ast/.asf automatically generated from VICON data using
   VICON BodyBuilder and BodyLanguage model FoxedUp or BRILLIANT.MOD
:root
   order TX TY TZ RX RY RZ
   axis XYZ
   position 0 0 0  
   orientation 0 0 0 
:bonedata
  begin
     id 1 
     name lhipjoint
     direction 0.567149 -0.783011 0.255413 
     length 2.28399 
     axis 0 0 0  XYZ
  end
  begin
     id 2 
     name lfemur
     direction 0.34202 -0.939693 0  
     length 7.34031  
     axis 0 0 20  XYZ
    dof rx ry rz
    limits (-160.0 20.0)
           (-70.0 70.0)
           (-60.0 70.0)
  end
  begin
     id 3 
     name ltibia
     direction 0.34202 -0.939693 0   
     length 6.9833   
     axis 0 0 20   XYZ
    dof rx
    limits (-10.0 170.0)
  end
  begin
     id 4 
     name lfoot
     direction 0.136498 -0.375025 0.91691   
     length 2.33665   
     axis -90 7.62852e-016 20   XYZ
    dof rx rz
    limits (-45.0 90.0)
           (-70.0 20.0)
  end
  begin
     id 5 
     name ltoes
     direction 1.5367e-011 -4.21617e-011 1   
     length 1.15039   
     axis -90 7.62852e-016 20   XYZ
    dof rx
    limits (-90.0 20.0)
  end
  begin
     id 6 
     name rhipjoint
     direction -0.602854 -0.758518 0.247423   
     length 2.35775  
     axis 0 0 0  XYZ 
  end
  begin
     id 7 
     name rfemur
     direction -0.34202 -0.939693 0   
     length 7.43932   
     axis 0 0 -20   XYZ
    dof rx ry rz
    limits (-160.0 20.0)
           (-70.0 70.0)
           (-70.0 60.0)
  end
  begin
     id 8 
     name rtibia
     direction -0.34202 -0.939693 0   
     length 7.11893   
     axis 0 0 -20   XYZ
    dof rx
    limits (-10.0 170.0)
 end
 begin
     id 9 
     name rfoot
     direction -0.131771 -0.362037 0.922803   
     length 2.53019  
     axis -90 -7.62852e-016 -20   XYZ
    dof rx rz
    limits (-45.0 90.0)
           (-20.0 70.0)
  end
  begin
     id 10 
     name rtoes
     direction -1.53733e-011 -4.21932e-011 1   
     length 1.24596   
     axis -90 -7.62852e-016 -20   XYZ
    dof rx
    limits (-90.0 20.0)
  end
  begin
     id 11 
     name lowerback
     direction 0.0235427 0.999023 -0.0374125   
     length 2.21768   
     axis 0 0 0   XYZ
    dof rx ry rz
    limits (-20.0 45.0)
           (-30.0 30.0)
           (-30.0 30.0)
  end
  begin
     id 12 
     name upperback
     direction 0.0302156 0.996818 -0.073759   
     length 2.20352   
     axis 0 0 0   XYZ
    dof rx ry rz
    limits (-20.0 45.0)
           (-30.0 30.0)
           (-30.0 30.0)
  end
  begin
     id 13 
     name thorax
     direction 0.0187169 0.998235 -0.0563532   
     length 2.22103   
     axis 0 0 0   XYZ
    dof rx ry rz
    limits (-20.0 45.0)
           (-30.0 30.0)
           (-30.0 30.0)
  end
  begin
     id 14 
     name lowerneck
     direction -0.119528 0.987423 0.103481   
     length 1.72948   
     axis 0 0 0   XYZ
    dof rx ry rz
    limits (-20.0 45.0)
           (-30.0 30.0)
           (-30.0 30.0)
  end
  begin
     id 15 
     name upperneck
     direction 0.248049 0.963095 -0.104496   
     length 1.74979   
     axis 0 0 0   XYZ
    dof rx ry rz
    limits (-20.0 45.0)
           (-30.0 30.0)
           (-30.0 30.0)
  end
  begin
     id 16
     name head
     direction 0.0903589 0.994284 -0.056876  
     length 1.78268  
     axis 0 0 0   XYZ
    dof rx ry rz
    limits (-20.0 45.0)
           (-30.0 30.0)
           (-30.0 30.0)
  end
  begin
     id 17 
     name lclavicle
     direction 0.946008 0.242039 -0.215608  
     length 3.80783  
     axis 0 0 0   XYZ
    dof ry rz
    limits (-20.0 10.0)
           (0.0 20.0)
  end
  begin
     id 18 
     name lhumerus
     direction 1 -4.48991e-011 -2.25695e-027   
     length 4.83125   
     axis 180 -30 -90   XYZ
    dof rx ry rz
    limits (-60.0 90.0)
           (-90.0 90.0)
           (-90.0 90.0)
  end
  begin
     id 19
     name lradius
     direction 0.999991 0.00366712 -0.00211721   
     length 3.00391   
     axis 180 -30 -90   XYZ
    dof rx
    limits (-10.0 170.0)
  end
  begin
     id 20
     name lwrist
     direction 0.999991 0.00393016 -0.00141978   
     length 1.50195   
     axis -1.00488e-014 90 90   XYZ
    dof ry
    limits (-180.0 0.0)
 end
  begin
     id 21 
     name lhand
     direction 1 -4.49123e-011 2.72098e-026   
     length 1.2717   
     axis -1.73687e-014 90 90   XYZ
    dof rx rz
    limits (-90.0 90.0)
           (-45.0 45.0)
  end
  begin
     id 22 
     name lfingers
     direction 1 -4.48678e-011 5.4479e-026   
     length 1.02528   
     axis -3.47372e-014 90 90   XYZ
    dof rx
    limits (0.0 90.0)
  end
  begin
     id 23
     name lthumb
     direction 0.707107 -6.34851e-011 0.707107   
     length 1.4721   
     axis -90 45 -1.62303e-014   XYZ
    dof rx rz
    limits (-45.0 45.0)
           (-45.0 45.0)
  end
  begin
     id 24 
     name rclavicle
     direction -0.981723 0.189447 -0.0181673   
     length 3.74989  
     axis 0 0 0   XYZ 
    dof ry rz
    limits (-10.0 20.0)
           (-20.0 0.0)
  end
  begin
     id 25 
     name rhumerus
     direction -1 -4.48985e-011 2.38206e-027  
     length 4.61118   
     axis 180 30 90   XYZ
    dof rx ry rz
    limits (-90.0 60.0)
           (-90.0 90.0)
           (-90.0 90.0)
  end
  begin
     id 26 
     name rradius
     direction -1 -4.48977e-011 7.41019e-027   
     length 2.91491   
     axis 180 30 90   XYZ
    dof rx
    limits (-10.0 170.0)
  end
  begin
     id 27 
     name rwrist
     direction -1 -4.48549e-011 1.3624e-026   
     length 1.45745   
     axis -1.00488e-014 -90 -90   XYZ
    dof ry
    limits (-180.0 0.0)
  end
  begin
     id 28
     name rhand
     direction -1 -4.49107e-011 2.72109e-026   
     length 1.30769   
     axis -1.73687e-014 -90 -90   XYZ
    dof rx rz
    limits (-90.0 90.0)
           (-45.0 45.0)
  end
  begin
     id 29
     name rfingers
     direction -1 -4.48919e-011 5.44468e-026   
     length 1.05429   
     axis -3.47372e-014 -90 -90   XYZ
    dof rx
    limits (0.0 90.0)
  end
  begin
     id 30
     name rthumb
     direction -0.707107 -6.35315e-011 0.707107   
     length 1.51376   
     axis -90 -45 1.62303e-014   XYZ
    dof rx rz
    limits (-45.0 45.0)
           (-45.0 45.0)
  end
:hierarchy
  begin
    root lhipjoint rhipjoint lowerback
    lhipjoint lfemur
    lfemur ltibia
    ltibia lfoot
    lfoot ltoes
    rhipjoint rfemur
    rfemur rtibia
    rtibia rfoot
    rfoot rtoes
    lowerback upperback
    upperback thorax
    thorax lowerneck lclavicle rclavicle
    lowerneck upperneck
    upperneck head
    lclavicle lhumerus
    lhumerus lradius
    lradius lwrist
    lwrist lhand lthumb
    lhand lfingers
    rclavicle rhumerus
    rhumerus rradius
    rradius rwrist
    rwrist rhand rthumb
    rhand rfingers
  end

#!OML:ASF X:\für Bonn\!DataBase\2005_08_11_Bastian_Final\c3d\Bastian.ASF
:FULLY-SPECIFIED
:DEGREES
17
root -1.53461 16.8794 -3.88972 168.746 -18.114 -175.778
lowerback 9.2495 -1.40898 5.5055
upperback 8.81607 -2.65856 1.76023
thorax 3.92855 -1.54938 -1.12438
lowerneck -6.05665 0.0475497 -1.55792
upperneck -8.21207 -0.233391 2.90227
head -1.53686 -0.332814 1.17097
rclavicle -2.33572e-014 2.3059e-014
rhumerus -39.1058 26.4891 -106.128
rradius 89.5898
rwrist 7.46826
rhand -17.9128 11.5608
rfingers 7.12502
rthumb 8.35446 -18.2539
lclavicle -2.33572e-014 2.3059e-014
lhumerus -34.5684 -34.6478 105.064
lradius 91.8907
lwrist 39.4666
lhand -1.08129 -17.7657
lfingers 7.12502
lthumb 24.5543 10.6798
rfemur -6.53322 -7.91392 26.3729
rtibia 47.3382
rfoot -205.645 -198.723
rtoes 2.90145
lfemur 0.198089 0.0297733 -15.3629
ltibia 40.452
lfoot -22.4113 -9.13204
ltoes -5.85436
18
root -1.51847 16.88 -3.90811 168.907 -18.0093 -175.872
lowerback 9.12074 -1.41298 5.40336
upperback 8.77983 -2.66346 1.72259
thorax 3.95995 -1.54997 -1.11041
lowerneck -6.05923 -0.0552107 -1.6577
upperneck -8.33039 -0.370698 2.99521
head -1.57138 -0.405116 1.21815
rclavicle 1.27222e-014 -3.57812e-015
rhumerus -39.2795 26.3695 -106.052
rradius 89.6666
rwrist 7.60238
rhand -17.8912 11.4049
rfingers 7.12502
rthumb 8.37537 -18.4091
lclavicle 1.27222e-014 -3.57812e-015
lhumerus -34.6478 -34.315 104.974
lradius 91.8343
lwrist 39.0864
lhand -1.31811 -17.5773
lfingers 7.12502
lthumb 24.3273 10.8988
rfemur -6.56906 -8.02415 26.3187
rtibia 47.251
rfoot -205.719 -198.424
rtoes 2.97006
lfemur 0.120777 0.289477 -15.2854
ltibia 40.4393
lfoot -22.4095 -9.34275
ltoes -5.74143
19
root -1.501 16.8796 -3.9257 169.066 -17.8957 -175.952
lowerback 8.98147 -1.42301 5.27329
upperback 8.76239 -2.68451 1.70965
thorax 4.01861 -1.56192 -1.05534
lowerneck -6.10691 -0.141515 -1.76045
upperneck -8.44856 -0.488811 3.07167
head -1.5986 -0.468307 1.2606
rclavicle 3.57812e-015 -3.18055e-015
rhumerus -39.4645 26.3066 -105.917
rradius 89.8056
rwrist 7.67135
rhand -17.9111 11.1653
rfingers 7.12502
rthumb 8.35613 -18.6494
lclavicle 3.57812e-015 -3.18055e-015
lhumerus -34.6671 -33.9456 104.871
lradius 91.7736
lwrist 38.5373
lhand -1.63595 -17.4409
lfingers 7.12502
lthumb 24.0225 11.0758
rfemur -6.63384 -8.19397 26.2756
rtibia 47.2022
rfoot -205.744 -198.155
rtoes 2.85839
lfemur 0.0307494 0.529768 -15.1947
ltibia 40.4673
lfoot -22.4118 -9.55237
ltoes -5.57433
20
root -1.4819 16.8777 -3.94269 169.213 -17.7665 -176.032
lowerback 8.86311 -1.43993 5.1094
upperback 8.74258 -2.71579 1.70686
thorax 4.06426 -1.5819 -0.969565
lowerneck -6.16235 -0.211662 -1.83759
upperneck -8.55266 -0.588277 3.10422
head -1.62026 -0.521913 1.28461
rclavicle 4.03036e-014 -1.03368e-014
rhumerus -39.6749 26.2209 -105.772
rradius 89.9587
rwrist 7.74102
rhand -17.9561 10.9222
rfingers 7.12502
rthumb 8.31275 -18.8943
lclavicle 4.03036e-014 -1.03368e-014
lhumerus -34.7034 -33.4905 104.767
lradius 91.7068
lwrist 37.8448
lhand -1.97101 -17.3888
lfingers 7.12502
lthumb 23.7012 11.1698
rfemur -6.7069 -8.38015 26.2374
rtibia 47.1755
rfoot -205.718 -197.869
rtoes 2.78487
lfemur -0.0516845 0.734047 -15.119
ltibia 40.5236
lfoot -22.4657 -9.6574
ltoes -5.65168
21
root -1.46138 16.8754 -3.9572 169.355 -17.64 -176.123
lowerback 8.78482 -1.46271 4.93738
upperback 8.71686 -2.75175 1.69697
thorax 4.08146 -1.60521 -0.884681
lowerneck -6.23361 -0.270345 -1.93161
upperneck -8.63722 -0.669608 3.17013
head -1.63345 -0.566054 1.32201
rclavicle -9.0447e-015 -8.74653e-015
rhumerus -39.9058 26.0783 -105.605
rradius 90.1354
rwrist 7.8077
rhand -17.9486 10.6999
rfingers 7.12502
rthumb 8.31989 -19.1163
lclavicle -9.0447e-015 -8.74653e-015
lhumerus -34.7405 -33.0253 104.637
lradius 91.6221
lwrist 37.0061
lhand -2.374 -17.3809
lfingers 7.12502
lthumb 23.3146 11.2273
rfemur -6.79261 -8.5681 26.1853
rtibia 47.1676
rfoot -205.741 -197.558
rtoes 2.90149
lfemur -0.149333 0.927991 -15.0519
ltibia 40.6082
lfoot -22.5082 -9.77703
ltoes -5.58312
22
root -1.44007 16.8731 -3.97063 169.509 -17.4857 -176.199
lowerback 8.72377 -1.49162 4.76165
upperback 8.67371 -2.7929 1.7011
thorax 4.07137 -1.63197 -0.781753
lowerneck -6.34487 -0.314612 -2.03219
upperneck -8.68787 -0.732576 3.19743
head -1.62941 -0.599461 1.34761
rclavicle -1.94312e-014 7.15625e-015
rhumerus -40.2015 25.9014 -105.43
rradius 90.3813
rwrist 7.85998
rhand -17.9049 10.5059
rfingers 7.12502
rthumb 8.36207 -19.3085
lclavicle -1.94312e-014 7.15625e-015
lhumerus -34.7755 -32.482 104.51
lradius 91.5161
lwrist 36.1417
lhand -2.80519 -17.4511
lfingers 7.12502
lthumb 22.9009 11.209
rfemur -6.91606 -8.75848 26.157
rtibia 47.1767
rfoot -205.735 -197.267
rtoes 2.95054
lfemur -0.268813 1.10202 -14.9865
ltibia 40.7179
lfoot -22.6446 -9.80805
ltoes -5.78264
23
root -1.41756 16.8693 -3.98181 169.638 -17.2943 -176.278
lowerback 8.73142 -1.51641 4.58196
upperback 8.63213 -2.82677 1.69851
thorax 4.02569 -1.65693 -0.681223
lowerneck -6.49117 -0.347269 -2.12076
upperneck -8.71897 -0.780237 3.23963
head -1.61358 -0.625769 1.37549
rclavicle -9.98893e-015 -4.37326e-015
rhumerus -40.5296 25.6151 -105.242
rradius 90.7054
rwrist 7.95489
rhand -17.7669 10.3616
rfingers 7.12502
rthumb 8.4953 -19.4475
lclavicle -9.98893e-015 -4.37326e-015
lhumerus -34.8246 -31.8698 104.351
lradius 91.3931
lwrist 35.2324
lhand -3.16072 -17.5397
lfingers 7.12502
lthumb 22.5597 11.1623
rfemur -7.02641 -8.89493 26.1404
rtibia 47.2002
rfoot -205.705 -196.988
rtoes 3.05829
lfemur -0.375606 1.19571 -14.9584
ltibia 40.8415
lfoot -22.8461 -9.664
ltoes -6.08079
24
root -1.39433 16.8663 -3.99156 169.776 -17.0866 -176.378
lowerback 8.76216 -1.53587 4.38864
upperback 8.58208 -2.85142 1.69053
thorax 3.95905 -1.67775 -0.577946
lowerneck -6.65504 -0.373635 -2.19199
upperneck -8.73198 -0.821404 3.24536
head -1.58916 -0.648332 1.38833
rclavicle -6.95746e-015 -8.34896e-015
rhumerus -40.9063 25.279 -105.028
rradius 91.104
rwrist 8.01338
rhand -17.5773 10.2492
rfingers 7.12502
rthumb 8.67828 -19.5524
lclavicle -6.95746e-015 -8.34896e-015
lhumerus -34.8676 -31.2079 104.165
lradius 91.2328
lwrist 34.3882
lhand -3.45392 -17.6255
lfingers 7.12502
lthumb 22.2783 11.1104
rfemur -7.16403 -9.05535 26.1002
rtibia 47.25
rfoot -205.695 -196.693
rtoes 3.13532
lfemur -0.502352 1.28504 -14.9626
ltibia 40.9618
lfoot -22.9733 -9.49077
ltoes -6.39768
25
root -1.37051 16.8612 -4.00073 169.863 -16.8409 -176.461
lowerback 8.85707 -1.55168 4.20457
upperback 8.54415 -2.87272 1.68442
thorax 3.87053 -1.69878 -0.475656
lowerneck -6.84168 -0.376696 -2.21076
upperneck -8.74634 -0.837434 3.21025
head -1.56215 -0.65998 1.379
rclavicle 6.55989e-015 2.70347e-014
rhumerus -41.2555 24.9367 -104.8
rradius 91.5136
rwrist 8.01739
rhand -17.3319 10.1767
rfingers 7.12502
rthumb 8.91512 -19.615
lclavicle 6.55989e-015 2.70347e-014
lhumerus -34.8961 -30.4945 103.879
lradius 91.078
lwrist 33.7272
lhand -3.55228 -17.6512
lfingers 7.12502
lthumb 22.1838 11.0958
rfemur -7.26722 -9.111 26.0978
rtibia 47.323
rfoot -205.719 -196.433
rtoes 3.31745
lfemur -0.580127 1.32219 -14.967
ltibia 41.0708
lfoot -22.9885 -9.25299
ltoes -6.44223
26
root -1.34664 16.8529 -4.00861 169.967 -16.5798 -176.54
lowerback 8.93575 -1.57224 4.02362
upperback 8.50437 -2.90182 1.68947
thorax 3.78956 -1.72356 -0.363645
lowerneck -7.05218 -0.370167 -2.27981
upperneck -8.74916 -0.836475 3.21011
head -1.52803 -0.662208 1.38944
rclavicle -1.83876e-014 2.38542e-014
rhumerus -41.5884 24.6548 -104.551
rradius 91.8776
rwrist 8.08013
rhand -17.1436 10.1394
rfingers 7.12502
rthumb 9.09673 -19.6444
lclavicle -1.83876e-014 2.38542e-014
lhumerus -34.8607 -29.7088 103.544
lradius 90.8325
lwrist 33.2287
lhand -3.49894 -17.6451
lfingers 7.12502
lthumb 22.235 11.0959
rfemur -7.41273 -9.15644 26.1044
rtibia 47.4326
rfoot -205.735 -196.196
rtoes 3.41746
lfemur -0.665849 1.35162 -14.9789
ltibia 41.1618
lfoot -22.9424 -8.98771
ltoes -6.50492
27
root -1.32178 16.8422 -4.01623 170.025 -16.3188 -176.59
lowerback 9.06053 -1.59639 3.87396
upperback 8.46973 -2.93348 1.67681
thorax 3.68712 -1.74852 -0.285224
lowerneck -7.27049 -0.334618 -2.2042
upperneck -8.73461 -0.808581 3.12359
head -1.48796 -0.653849 1.34719
rclavicle -1.98288e-014 2.14687e-014
rhumerus -41.8515 24.3783 -104.317
rradius 92.1574
rwrist 8.12642
rhand -17.036 10.1487
rfingers 7.12502
rthumb 9.20058 -19.6306
lclavicle -1.98288e-014 2.14687e-014
lhumerus -34.804 -28.9482 103.133
lradius 90.4964
lwrist 32.9477
lhand -3.35172 -17.6344
lfingers 7.12502
lthumb 22.3764 11.0897
rfemur -7.53776 -9.17963 26.1501
rtibia 47.5849
rfoot -205.79 -195.982
rtoes 3.59313
lfemur -0.721697 1.22881 -14.9973
ltibia 41.2717
lfoot -22.9407 -8.60573
ltoes -6.38809
28
root -1.2967 16.8308 -4.02295 170.082 -16.0691 -176.674
lowerback 9.19606 -1.63212 3.70948
upperback 8.44108 -2.98233 1.65185
thorax 3.58489 -1.78262 -0.209767
lowerneck -7.48508 -0.29623 -2.19521
upperneck -8.73831 -0.772856 3.07342
head -1.45468 -0.640958 1.32857
rclavicle 1.58531e-014 -2.3059e-014
rhumerus -42.0695 24.1603 -104.053
rradius 92.4061
rwrist 8.12204
rhand -16.9356 10.1518
rfingers 7.12502
rthumb 9.29746 -19.6232
lclavicle 1.58531e-014 -2.3059e-014
lhumerus -34.6988 -28.1282 102.663
lradius 90.0192
lwrist 32.8229
lhand -3.09789 -17.6624
lfingers 7.12502
lthumb 22.62 11.0322
rfemur -7.66711 -9.25363 26.1452
rtibia 47.7569
rfoot -205.848 -195.779
rtoes 3.58259
lfemur -0.79159 1.15621 -15.0396
ltibia 41.4102
lfoot -22.9097 -8.27336
ltoes -6.16573
29
root -1.27103 16.8138 -4.02711 170.098 -15.8139 -176.737
lowerback 9.38041 -1.67014 3.62371
upperback 8.41712 -3.02868 1.59497
thorax 3.45687 -1.81167 -0.208926
lowerneck -7.68002 -0.252936 -2.17546
upperneck -8.75434 -0.730223 3.05515
head -1.42884 -0.62571 1.31876
rclavicle -6.85807e-015 1.19271e-014
rhumerus -42.2387 23.9126 -103.798
rradius 92.6162
rwrist 8.14962
rhand -16.8894 10.1542
rfingers 7.12502
rthumb 9.3421 -19.6188
lclavicle -6.85807e-015 1.19271e-014
lhumerus -34.6377 -27.3391 102.144
lradius 89.5051
lwrist 32.8562
lhand -2.79098 -17.7244
lfingers 7.12502
lthumb 22.9146 10.934
rfemur -7.78481 -9.28872 26.1689
rtibia 47.948
rfoot -205.931 -195.569
rtoes 3.65065
lfemur -0.892063 1.19343 -15.0159
ltibia 41.6315
lfoot -22.8091 -8.01668
ltoes -5.85695
